<svg width="164" height="168" viewBox="0 0 164 168" fill="none" xmlns="http://www.w3.org/2000/svg">
<mask id="mask0_9654_2216" style="mask-type:luminance" maskUnits="userSpaceOnUse" x="27" y="30" width="110" height="109">
<path d="M74.549 87.0352L115.402 61.7976C116.41 63.3127 117.345 64.8527 118.135 66.4425L132.79 67.5085C133.711 67.5963 134.953 68.3829 134.963 69.351L136.538 91.6777C136.622 92.7419 135.763 94.0091 134.846 94.2844L120.303 97.3081C119.763 99.032 119.078 100.685 118.271 102.339L74.549 87.0352Z" fill="white"/>
<path d="M76.0145 79.523L118.299 102.284C117.49 103.914 116.624 105.494 115.642 106.973L122.047 120.198C122.431 121.04 122.371 122.509 121.538 123.001L102.99 135.529C102.11 136.133 100.583 136.023 99.8857 135.366L89.9957 124.284C88.2328 124.679 86.4586 124.911 84.6228 125.039L76.0145 79.523Z" fill="white"/>
<path d="M83.2475 77.0296L84.6778 125.029C82.862 125.144 81.0608 125.184 79.2889 125.073L71.0381 137.232C70.5018 137.986 69.1995 138.668 68.3562 138.192L48.2328 128.393C47.2695 127.933 46.6016 126.556 46.8217 125.624L51.4742 111.518C50.251 110.188 49.1625 108.768 48.1335 107.242L83.2475 77.0296Z" fill="white"/>
<path d="M89.0262 82.062L48.1729 107.3C47.1655 105.784 46.2305 104.244 45.4402 102.655L30.7849 101.589C29.8642 101.501 28.6219 100.714 28.6124 99.7461L27.0368 77.4195C26.9536 76.3552 27.8126 75.0881 28.7297 74.8128L43.272 71.7891C43.8118 70.0651 44.4975 68.4124 45.3042 66.7584L89.0262 82.062Z" fill="white"/>
<path d="M87.5666 89.5722L45.2825 66.8108C46.0909 65.1808 46.9571 63.6011 47.9387 62.1218L41.5341 48.8968C41.1497 48.0556 41.2098 46.5865 42.0435 46.0941L60.5914 33.5662C61.4715 32.9621 62.9984 33.0723 63.6954 33.7289L73.5854 44.8112C75.3483 44.4167 77.1225 44.1841 78.9583 44.0558L87.5666 89.5722Z" fill="white"/>
<path d="M80.3257 92.0632L78.8954 44.0637C80.7112 43.9488 82.5124 43.909 84.2844 44.0196L92.5351 31.8606C93.0715 31.1071 94.3738 30.4246 95.217 30.9004L115.34 40.6995C116.304 41.1596 116.972 42.5371 116.752 43.469L112.099 57.5751C113.322 58.9045 114.411 60.3247 115.44 61.8504L80.3257 92.0632Z" fill="white"/>
<path d="M73.4877 101.578C82.8912 106.164 94.2321 102.259 98.8184 92.8558C103.405 83.4525 99.4997 72.1115 90.0962 67.5251C80.6928 62.9387 69.3519 66.8436 64.7656 76.247C60.1793 85.6503 64.0843 96.9913 73.4877 101.578Z" fill="black"/>
</mask>
<g mask="url(#mask0_9654_2216)">
<path d="M166.626 55.3217L110.998 169.377L-3.05872 113.748L52.5695 -0.307723L166.626 55.3217Z" fill="#0047CC" stroke="#002BC4" stroke-width="3"/>
</g>
</svg>
