<svg width="238" height="253" viewBox="0 0 238 253" fill="none" xmlns="http://www.w3.org/2000/svg">
<mask id="mask0_9654_3123" style="mask-type:luminance" maskUnits="userSpaceOnUse" x="23" y="29" width="192" height="194">
<path d="M127.019 115.496L92.4404 192.045C89.4971 190.834 86.6344 189.516 83.9329 187.984L61.6304 200.775C60.209 201.548 57.6375 201.623 56.6767 200.229L32.5524 169.403C31.3908 167.941 31.3974 165.264 32.4585 163.968L50.5969 145.359C49.6936 142.332 49.0717 139.265 48.6242 136.078L127.019 115.496Z" fill="white"/>
<path d="M132.236 127.843L48.6279 136.194C48.2058 133.04 47.9166 129.903 47.8933 126.799L25.6632 113.89C24.2825 113.046 22.9322 110.858 23.6598 109.329L38.3082 73.0309C38.9938 71.2946 41.3167 69.9614 42.9702 70.2317L68.1598 76.6262C70.3311 74.3305 72.6772 72.2585 75.2146 70.2773L132.236 127.843Z" fill="white"/>
<path d="M124.165 138.503L75.1499 70.3251C77.6717 68.3822 80.2457 66.5625 82.9244 64.9892L83.003 39.2927C83.0442 37.6758 84.266 35.4123 85.9546 35.2771L124.73 29.7946C126.578 29.5193 128.894 30.8626 129.486 32.4288L136.531 57.4275C139.606 58.158 142.574 59.1518 145.558 60.3566L124.165 138.503Z" fill="white"/>
<path d="M110.9 136.895L145.478 60.3455C148.421 61.5565 151.284 62.8744 153.986 64.4062L176.288 51.6161C177.709 50.8427 180.281 50.7678 181.242 52.162L205.366 82.9881C206.528 84.4496 206.521 87.1269 205.46 88.4231L187.322 107.032C188.225 110.059 188.847 113.126 189.294 116.312L110.9 136.895Z" fill="white"/>
<path d="M105.658 124.566L189.266 116.215C189.688 119.368 189.977 122.505 190.001 125.61L212.231 138.519C213.611 139.362 214.962 141.551 214.234 143.08L199.586 179.378C198.9 181.114 196.577 182.447 194.924 182.177L169.734 175.782C167.563 178.078 165.217 180.15 162.679 182.131L105.658 124.566Z" fill="white"/>
<path d="M113.726 113.877L162.741 182.055C160.219 183.998 157.645 185.817 154.967 187.391L154.888 213.087C154.847 214.704 153.625 216.968 151.937 217.103L113.161 222.585C111.313 222.861 108.997 221.517 108.405 219.951L101.36 194.952C98.2854 194.222 95.3175 193.228 92.3327 192.023L113.726 113.877Z" fill="white"/>
<path d="M114.332 93.3879C96.2035 95.9364 83.5712 112.689 86.1165 130.806C88.6619 148.923 105.421 161.543 123.549 158.995C141.677 156.446 154.31 139.694 151.764 121.577C149.219 103.46 132.46 90.8394 114.332 93.3879Z" fill="black"/>
</mask>
<g mask="url(#mask0_9654_3123)">
<path d="M22.198 254.481L247.282 222.843L215.674 -2.0897L-9.4096 29.5483L22.198 254.481Z" fill="#DEE7F4"/>
</g>
</svg>
