<svg width="32" height="35" viewBox="0 0 32 35" fill="none" xmlns="http://www.w3.org/2000/svg">
<mask id="mask0_8568_13871" style="mask-type:luminance" maskUnits="userSpaceOnUse" x="2" y="3" width="28" height="29">
<path d="M14.5302 18.7572L21.5887 8.38709C21.9898 8.64194 22.3763 8.91044 22.7335 9.20622L26.3405 7.90343C26.5694 7.82655 26.9491 7.88242 27.0542 8.11267L29.8014 13.2785C29.9343 13.5238 29.8641 13.9178 29.6747 14.081L26.529 16.3488C26.5835 16.8179 26.5956 17.2856 26.579 17.7664L14.5302 18.7572Z" fill="white"/>
<path d="M14.0815 16.813L26.5786 17.7489C26.5587 18.2244 26.5198 18.6939 26.4426 19.1518L29.3726 21.6292C29.5535 21.7892 29.695 22.1466 29.5484 22.3529L26.4544 27.3201C26.3086 27.5581 25.9328 27.6943 25.697 27.6116L22.1632 26.0171C21.7847 26.299 21.3862 26.5435 20.9621 26.7695L14.0815 16.813Z" fill="white"/>
<path d="M15.5369 15.4477L20.9809 26.7669C20.5603 26.9872 20.1352 27.188 19.701 27.3498L19.027 31.132C18.9792 31.369 18.7414 31.6705 18.4898 31.6463L12.6511 31.442C12.3726 31.4343 12.0669 31.1761 12.0203 30.93L11.6297 27.0647C11.1968 26.8769 10.7863 26.6531 10.3788 26.3978L15.5369 15.4477Z" fill="white"/>
<path d="M17.4513 16.0367L10.3928 26.4069C9.99167 26.152 9.60518 25.8835 9.24791 25.5877L5.6409 26.8905C5.41209 26.9674 5.03238 26.9115 4.92727 26.6813L2.18004 21.5155C2.04718 21.2701 2.11735 20.8761 2.30674 20.7129L5.4524 18.4452C5.39795 17.976 5.38586 17.5084 5.40249 17.0275L17.4513 16.0367Z" fill="white"/>
<path d="M17.9038 17.977L5.40673 17.0411C5.4266 16.5657 5.46558 16.0961 5.54276 15.6382L2.61277 13.1608C2.43189 13.0008 2.29038 12.6435 2.43695 12.4371L5.53094 7.46997C5.67673 7.23197 6.05252 7.09577 6.28837 7.17842L9.82218 8.77292C10.2007 8.49101 10.5991 8.24659 11.0232 8.02051L17.9038 17.977Z" fill="white"/>
<path d="M16.4475 19.3492L11.0034 8.02997C11.4241 7.80964 11.8492 7.60883 12.2833 7.44703L12.9574 3.66487C13.0051 3.42784 13.243 3.12639 13.4946 3.15054L19.3332 3.35491C19.6118 3.36257 19.9174 3.62081 19.964 3.86691L20.3547 7.73219C20.7876 7.91999 21.1981 8.14378 21.6056 8.39909L16.4475 19.3492Z" fill="white"/>
<path d="M15.8189 22.3459C18.5474 22.4417 20.8364 20.3026 20.9315 17.5682C21.0266 14.8338 18.8917 12.5395 16.1632 12.4438C13.4346 12.3481 11.1456 14.4872 11.0505 17.2216C10.9554 19.956 13.0903 22.2502 15.8189 22.3459Z" fill="black"/>
</mask>
<g mask="url(#mask0_8568_13871)">
<path d="M33.5206 1.01082L-0.354492 -0.174805L-1.53748 33.7781L32.3376 34.9637L33.5206 1.01082Z" fill="black"/>
</g>
</svg>
