<svg width="57" height="59" viewBox="0 0 57 59" fill="none" xmlns="http://www.w3.org/2000/svg">
<mask id="mask0_9588_323" style="mask-type:luminance" maskUnits="userSpaceOnUse" x="10" y="11" width="37" height="37">
<path d="M31.2626 30.1426L16.9664 22.6528C16.6636 23.1842 16.3857 23.7222 16.1575 24.2735L11.2644 24.977C10.9575 25.0282 10.5589 25.321 10.5783 25.6456L10.5689 33.1628C10.5658 33.5213 10.8835 33.9256 11.1977 33.9961L16.1479 34.6655C16.3692 35.2303 16.6377 35.7678 16.9469 36.3029L31.2626 30.1426Z" fill="white"/>
<path d="M30.5905 27.6515L16.9342 36.2859C17.243 36.8129 17.5699 37.3217 17.9333 37.794L16.0905 42.3784C15.981 42.6694 16.035 43.1603 16.326 43.3055L22.8358 47.0621C23.1449 47.2436 23.6545 47.1703 23.8731 46.9337L26.9343 42.9844C27.5347 43.0746 28.1351 43.1103 28.7538 43.1096L30.5905 27.6515Z" fill="white"/>
<path d="M28.1024 26.9998L28.7409 43.1055C29.353 43.1011 29.9585 43.0719 30.5507 42.9931L33.6032 46.8698C33.8008 47.1094 34.2538 47.3073 34.5257 47.1281L41.0515 43.3724C41.364 43.1956 41.5561 42.7187 41.4605 42.4118L39.5703 37.7983C39.9498 37.3244 40.2821 36.8231 40.5919 36.288L28.1024 26.9998Z" fill="white"/>
<path d="M26.2858 28.8063L40.5819 36.2961C40.8847 35.7647 41.1627 35.2267 41.3909 34.6754L46.2839 33.9719C46.5908 33.9208 46.9894 33.6279 46.9701 33.3033L46.9794 25.7861C46.9826 25.4276 46.6648 25.0234 46.3507 24.9528L41.4004 24.2835C41.1792 23.7186 40.9106 23.1811 40.6015 22.6461L26.2858 28.8063Z" fill="white"/>
<path d="M26.9524 31.2976L40.6087 22.6632C40.3 22.1362 39.973 21.6274 39.6097 21.1551L41.4525 16.5707C41.562 16.2797 41.508 15.7888 41.217 15.6436L34.7072 11.887C34.3981 11.7055 33.8885 11.7788 33.6699 12.0154L30.6086 15.9647C30.0083 15.8745 29.4079 15.8388 28.7892 15.8395L26.9524 31.2976Z" fill="white"/>
<path d="M29.4435 31.9539L28.805 15.8483C28.1929 15.8527 27.5874 15.8818 26.9952 15.9606L23.9427 12.084C23.7451 11.8443 23.2921 11.6465 23.0202 11.8257L16.4944 15.5813C16.1819 15.7581 15.9898 16.2351 16.0854 16.542L17.9756 21.1554C17.5961 21.6294 17.2638 22.1306 16.954 22.6657L29.4435 31.9539Z" fill="white"/>
<path d="M31.9525 34.9843C28.9037 36.7439 25.008 35.7048 23.2514 32.6635C21.4948 29.6221 22.5424 25.7301 25.5913 23.9704C28.6402 22.2108 32.5358 23.2499 34.2924 26.2913C36.049 29.3326 35.0014 33.2246 31.9525 34.9843Z" fill="black"/>
</mask>
<g mask="url(#mask0_9588_323)">
<path d="M0.306443 21.8892L21.1116 57.918L57.2361 37.0655L36.4309 1.03669L0.306443 21.8892Z" fill="#0047CC" stroke="#002BC4" stroke-width="2"/>
</g>
</svg>
