<svg width="85" height="91" viewBox="0 0 85 91" fill="none" xmlns="http://www.w3.org/2000/svg">
<mask id="mask0_10374_6456" style="mask-type:luminance" maskUnits="userSpaceOnUse" x="8" y="11" width="68" height="69">
<path d="M39.5229 49.4218L51.2128 22.2702C52.2558 22.6785 53.2711 23.1249 54.2309 23.6476L61.9975 19.0105C62.4928 18.7296 63.397 18.6877 63.7436 19.1725L72.4216 29.8748C72.8393 30.3821 72.8536 31.3244 72.4883 31.7871L66.2227 38.4466C66.5592 39.5065 66.797 40.5821 66.9742 41.701L39.5229 49.4218Z" fill="white"/>
<path d="M37.61 45.1163L66.9696 41.6639C67.1374 42.7713 67.2585 43.8737 67.2858 44.9663L75.1851 49.3738C75.6759 49.6623 76.1644 50.4244 75.9178 50.967L70.9882 63.8337C70.7577 64.4491 69.9488 64.9326 69.3655 64.8476L60.4652 62.7512C59.7155 63.5727 58.9029 64.3164 58.0225 65.0293L37.61 45.1163Z" fill="white"/>
<path d="M40.377 41.3048L58.0466 65.0045C57.1716 65.7036 56.2773 66.3596 55.3447 66.9296L55.4774 75.9742C55.473 76.5436 55.0572 77.3476 54.464 77.4054L40.8563 79.5695C40.2081 79.6776 39.3849 79.2188 39.1669 78.6711L36.5322 69.9151C35.446 69.6766 34.3956 69.3448 33.338 68.9388L40.377 41.3048Z" fill="white"/>
<path d="M45.0688 41.8023L33.379 68.954C32.336 68.5457 31.3207 68.0992 30.3609 67.5766L22.5943 72.2137C22.099 72.4945 21.1948 72.5365 20.8482 72.0517L12.1702 61.3494C11.7525 60.842 11.7382 59.8998 12.1035 59.4371L18.3691 52.7776C18.0326 51.7176 17.7948 50.6421 17.6176 49.5232L45.0688 41.8023Z" fill="white"/>
<path d="M46.9827 46.105L17.6232 49.5573C17.4553 48.45 17.3343 47.3475 17.307 46.2549L9.40769 41.8474C8.91684 41.5589 8.42837 40.7969 8.67493 40.2542L13.6045 27.3876C13.8351 26.7722 14.644 26.2887 15.2273 26.3737L24.1276 28.47C24.8773 27.6486 25.6898 26.9049 26.5702 26.1919L46.9827 46.105Z" fill="white"/>
<path d="M44.2118 49.9172L26.5422 26.2175C27.4173 25.5184 28.3116 24.8624 29.2441 24.2924L29.1115 15.2478C29.1159 14.6784 29.5316 13.8744 30.1248 13.8166L43.7325 11.6525C44.3807 11.5444 45.2039 12.0032 45.422 12.5509L48.0566 21.3069C49.1428 21.5454 50.1932 21.8772 51.2508 22.2832L44.2118 49.9172Z" fill="white"/>
<path d="M44.1228 57.13C50.4841 56.1225 54.8242 50.149 53.8167 43.7877C52.8091 37.4265 46.8355 33.0865 40.4742 34.094C34.1129 35.1015 29.7728 41.075 30.7803 47.4362C31.7879 53.7975 37.7615 58.1375 44.1228 57.13Z" fill="black"/>
</mask>
<g mask="url(#mask0_10374_6456)">
<path d="M75.5247 -0.13844L-3.45703 12.3708L9.05255 91.3516L88.0343 78.8424L75.5247 -0.13844Z" fill="#FFD88A"/>
</g>
</svg>
